<svg xmlns="http://www.w3.org/2000/svg" version="1.1" xmlns:xlink="http://www.w3.org/1999/xlink" xmlns:svgjs="http://svgjs.dev/svgjs" width="1500" height="1500" viewBox="0 0 1500 1500"><rect width="1500" height="1500" fill="#000000"></rect><g transform="matrix(0.6666666666666666,0,0,0.6666666666666666,249.39393939393938,548.8075488857089)"><svg viewBox="0 0 396 159" data-background-color="#000000" preserveAspectRatio="xMidYMid meet" height="602" width="1500" xmlns="http://www.w3.org/2000/svg" xmlns:xlink="http://www.w3.org/1999/xlink"><g id="tight-bounds" transform="matrix(1,0,0,1,0.2400000000000091,0.20830496803725396)"><svg viewBox="0 0 395.52 158.5833900639255" height="158.5833900639255" width="395.52"><g><svg viewBox="0 0 395.52 158.5833900639255" height="158.5833900639255" width="395.52"><g transform="matrix(1,0,0,1,0,95.77647688400836)"><svg viewBox="0 0 395.52 62.80691317991713" height="62.80691317991713" width="395.52"><g id="textblocktransform"><svg viewBox="0 0 395.52 62.80691317991713" height="62.80691317991713" width="395.52" id="textblock"><g><svg viewBox="0 0 395.52 38.02725761772854" height="38.02725761772854" width="395.52"><g transform="matrix(1,0,0,1,0,0)"><svg width="395.52" viewBox="3 -41.05 433.16 41.65" height="38.02725761772854" data-palette-color="#00ffee"><path d="M11.95 0L3 0 3-40.5 14.15-40.5Q18.25-40.5 21.25-39.6 24.25-38.7 25.93-36.38 27.6-34.05 27.6-29.8L27.6-29.8Q27.6-27.3 27.2-25.35 26.8-23.4 25.73-21.98 24.65-20.55 22.65-19.6L22.65-19.6 28.2 0 18.95 0 14.5-18.15 11.95-18.15 11.95 0ZM11.95-34.5L11.95-23.3 14.45-23.3Q16.35-23.3 17.4-23.98 18.45-24.65 18.88-25.93 19.3-27.2 19.3-29L19.3-29Q19.3-31.6 18.35-33.05 17.4-34.5 14.85-34.5L14.85-34.5 11.95-34.5ZM39.5 0L31.05 0 38.7-40.5 48.9-40.5 56.45 0 48.2 0 46.85-8.55 40.9-8.55 39.5 0ZM43.85-29.7L41.7-13.9 46-13.9 43.85-29.7ZM67.8 0L60.15 0 60.15-40.5 66.45-40.5 74.75-21 74.75-40.5 82.15-40.5 82.15 0 76.09 0 67.8-21 67.8 0ZM98.54 0L88.19 0 88.19-40.5 98.44-40.5Q103.74-40.5 106.69-39.18 109.64-37.85 110.84-35.02 112.04-32.2 112.04-27.7L112.04-27.7 112.04-13Q112.04-8.45 110.84-5.58 109.64-2.7 106.72-1.35 103.79 0 98.54 0L98.54 0ZM97.14-34.25L97.14-6.2 98.54-6.2Q100.59-6.2 101.49-6.8 102.39-7.4 102.62-8.6 102.84-9.8 102.84-11.6L102.84-11.6 102.84-29.25Q102.84-31.05 102.57-32.15 102.29-33.25 101.39-33.75 100.49-34.25 98.49-34.25L98.49-34.25 97.14-34.25ZM129.09 0.6L129.09 0.6Q124.54 0.6 121.89-1 119.24-2.6 118.09-5.6 116.94-8.6 116.94-12.75L116.94-12.75 116.94-27.8Q116.94-32 118.09-34.95 119.24-37.9 121.89-39.48 124.54-41.05 129.09-41.05L129.09-41.05Q133.69-41.05 136.37-39.48 139.04-37.9 140.19-34.95 141.34-32 141.34-27.8L141.34-27.8 141.34-12.75Q141.34-8.6 140.19-5.6 139.04-2.6 136.37-1 133.69 0.6 129.09 0.6ZM129.09-5.75L129.09-5.75Q130.49-5.75 131.14-6.45 131.79-7.15 131.99-8.25 132.19-9.35 132.19-10.5L132.19-10.5 132.19-30Q132.19-31.2 131.99-32.27 131.79-33.35 131.14-34.05 130.49-34.75 129.09-34.75L129.09-34.75Q127.79-34.75 127.14-34.05 126.49-33.35 126.29-32.27 126.09-31.2 126.09-30L126.09-30 126.09-10.5Q126.09-9.35 126.27-8.25 126.44-7.15 127.07-6.45 127.69-5.75 129.09-5.75ZM153.09 0L146.64 0 147.34-40.5 156.94-40.5 161.39-16.95 166.19-40.5 175.44-40.5 176.14 0 169.79 0 169.04-26.95 164.34 0 158.69 0 153.69-27.15 153.09 0ZM204.93 0.6L204.93 0.6Q201.13 0.6 198.58-0.75 196.03-2.1 194.73-4.93 193.43-7.75 193.28-12.25L193.28-12.25 200.93-13.4Q200.98-10.8 201.41-9.2 201.83-7.6 202.61-6.9 203.38-6.2 204.48-6.2L204.48-6.2Q205.88-6.2 206.31-7.15 206.73-8.1 206.73-9.15L206.73-9.15Q206.73-11.65 205.53-13.38 204.33-15.1 202.28-16.85L202.28-16.85 198.78-19.9Q196.48-21.85 194.91-24.33 193.33-26.8 193.33-30.45L193.33-30.45Q193.33-35.6 196.38-38.33 199.43-41.05 204.68-41.05L204.68-41.05Q207.93-41.05 209.91-39.95 211.88-38.85 212.91-37.08 213.93-35.3 214.31-33.33 214.68-31.35 214.73-29.55L214.73-29.55 207.03-28.6Q206.98-30.4 206.81-31.73 206.63-33.05 206.08-33.77 205.53-34.5 204.38-34.5L204.38-34.5Q203.13-34.5 202.56-33.45 201.98-32.4 201.98-31.35L201.98-31.35Q201.98-29.1 203.06-27.68 204.13-26.25 205.88-24.7L205.88-24.7 209.23-21.75Q211.88-19.5 213.71-16.65 215.53-13.8 215.53-9.6L215.53-9.6Q215.53-6.75 214.23-4.42 212.93-2.1 210.56-0.75 208.18 0.6 204.93 0.6ZM232.53 0L223.53 0 223.53-33.85 217.43-33.85 217.43-40.5 238.58-40.5 238.58-33.85 232.53-33.85 232.53 0ZM253.83 0.6L253.83 0.6Q249.18 0.6 246.55-0.93 243.93-2.45 242.88-5.38 241.83-8.3 241.83-12.55L241.83-12.55 241.83-40.5 250.68-40.5 250.68-11.2Q250.68-9.95 250.88-8.7 251.08-7.45 251.75-6.65 252.43-5.85 253.83-5.85L253.83-5.85Q255.28-5.85 255.93-6.65 256.58-7.45 256.75-8.7 256.93-9.95 256.93-11.2L256.93-11.2 256.93-40.5 265.83-40.5 265.83-12.55Q265.83-8.3 264.75-5.38 263.68-2.45 261.08-0.93 258.48 0.6 253.83 0.6ZM280.48 0L271.53 0 271.53-40.5 289.03-40.5 289.03-34.45 280.48-34.45 280.48-24.25 287.93-24.25 287.93-18 280.48-18 280.48 0ZM301.92 0L292.97 0 292.97-40.5 310.47-40.5 310.47-34.45 301.92-34.45 301.92-24.25 309.37-24.25 309.37-18 301.92-18 301.92 0ZM337.97 0.6L337.97 0.6Q334.17 0.6 331.62-0.75 329.07-2.1 327.77-4.93 326.47-7.75 326.32-12.25L326.32-12.25 333.97-13.4Q334.02-10.8 334.44-9.2 334.87-7.6 335.64-6.9 336.42-6.2 337.52-6.2L337.52-6.2Q338.92-6.2 339.34-7.15 339.77-8.1 339.77-9.15L339.77-9.15Q339.77-11.65 338.57-13.38 337.37-15.1 335.32-16.85L335.32-16.85 331.82-19.9Q329.52-21.85 327.94-24.33 326.37-26.8 326.37-30.45L326.37-30.45Q326.37-35.6 329.42-38.33 332.47-41.05 337.72-41.05L337.72-41.05Q340.97-41.05 342.94-39.95 344.92-38.85 345.94-37.08 346.97-35.3 347.34-33.33 347.72-31.35 347.77-29.55L347.77-29.55 340.07-28.6Q340.02-30.4 339.84-31.73 339.67-33.05 339.12-33.77 338.57-34.5 337.42-34.5L337.42-34.5Q336.17-34.5 335.59-33.45 335.02-32.4 335.02-31.35L335.02-31.35Q335.02-29.1 336.09-27.68 337.17-26.25 338.92-24.7L338.92-24.7 342.27-21.75Q344.92-19.5 346.74-16.65 348.57-13.8 348.57-9.6L348.57-9.6Q348.57-6.75 347.27-4.42 345.97-2.1 343.59-0.75 341.22 0.6 337.97 0.6ZM361.22 0L352.26 0 352.26-40.5 361.22-40.5 361.22-24.1 367.47-24.1 367.47-40.5 376.47-40.5 376.47 0 367.47 0 367.47-17.7 361.22-17.7 361.22 0ZM394.21 0.6L394.21 0.6Q389.66 0.6 387.01-1 384.36-2.6 383.21-5.6 382.06-8.6 382.06-12.75L382.06-12.75 382.06-27.8Q382.06-32 383.21-34.95 384.36-37.9 387.01-39.48 389.66-41.05 394.21-41.05L394.21-41.05Q398.81-41.05 401.49-39.48 404.16-37.9 405.31-34.95 406.46-32 406.46-27.8L406.46-27.8 406.46-12.75Q406.46-8.6 405.31-5.6 404.16-2.6 401.49-1 398.81 0.6 394.21 0.6ZM394.21-5.75L394.21-5.75Q395.61-5.75 396.26-6.45 396.91-7.15 397.11-8.25 397.31-9.35 397.31-10.5L397.31-10.5 397.31-30Q397.31-31.2 397.11-32.27 396.91-33.35 396.26-34.05 395.61-34.75 394.21-34.75L394.21-34.75Q392.91-34.75 392.26-34.05 391.61-33.35 391.41-32.27 391.21-31.2 391.21-30L391.21-30 391.21-10.5Q391.21-9.35 391.39-8.25 391.56-7.15 392.19-6.45 392.81-5.75 394.21-5.75ZM420.86 0L411.91 0 411.91-40.5 425.51-40.5Q429.16-40.5 431.51-39.13 433.86-37.75 435.01-35.13 436.16-32.5 436.16-28.75L436.16-28.75Q436.16-24.05 434.61-21.58 433.06-19.1 430.41-18.15 427.76-17.2 424.46-17.2L424.46-17.2 420.86-17.2 420.86 0ZM420.86-34.2L420.86-23.45 423.86-23.45Q425.51-23.45 426.36-24.05 427.21-24.65 427.49-25.85 427.76-27.05 427.76-28.9L427.76-28.9Q427.76-30.45 427.54-31.63 427.31-32.8 426.46-33.5 425.61-34.2 423.81-34.2L423.81-34.2 420.86-34.2Z" opacity="1" transform="matrix(1,0,0,1,0,0)" fill="#ffffff" class="wordmark-text-0" data-fill-palette-color="primary" id="text-0"></path></svg></g></svg></g><g transform="matrix(1,0,0,1,75.54432,47.00458048709142)"><svg viewBox="0 0 244.43135999999998 15.802332692825713" height="15.802332692825713" width="244.43135999999998"><g transform="matrix(1,0,0,1,0,0)"><svg width="244.43135999999998" viewBox="1.15 -35.5 556.8100000000001 36" height="15.802332692825713" data-palette-color="#ff45d0"><path d="M15.6 0.5L15.6 0.5Q12.75 0.5 10.18-0.23 7.6-0.95 5.6-2.4 3.6-3.85 2.43-6 1.25-8.15 1.15-11L1.15-11Q1.15-11.45 1.45-11.78 1.75-12.1 2.25-12.1L2.25-12.1 9-12.1Q9.7-12.1 10.08-11.75 10.45-11.4 10.7-10.7L10.7-10.7Q11-9.3 11.68-8.43 12.35-7.55 13.43-7.13 14.5-6.7 15.85-6.7L15.85-6.7Q18.35-6.7 19.7-8.33 21.05-9.95 21.05-13.1L21.05-13.1 21.05-27.55 4.85-27.55Q4.35-27.55 3.98-27.9 3.6-28.25 3.6-28.8L3.6-28.8 3.6-33.75Q3.6-34.3 3.98-34.65 4.35-35 4.85-35L4.85-35 29.05-35Q29.6-35 29.98-34.65 30.35-34.3 30.35-33.75L30.35-33.75 30.35-12.85Q30.35-8.5 28.48-5.53 26.6-2.55 23.28-1.03 19.95 0.5 15.6 0.5ZM51.75 0.5L51.75 0.5Q47.2 0.5 43.82-0.98 40.45-2.45 38.6-5.53 36.75-8.6 36.75-13.35L36.75-13.35 36.75-33.75Q36.75-34.3 37.1-34.65 37.45-35 38-35L38-35 44.45-35Q45-35 45.37-34.65 45.75-34.3 45.75-33.75L45.75-33.75 45.75-13.4Q45.75-10.15 47.3-8.53 48.85-6.9 51.7-6.9L51.7-6.9Q54.5-6.9 56.07-8.53 57.65-10.15 57.65-13.4L57.65-13.4 57.65-33.75Q57.65-34.3 58.02-34.65 58.4-35 58.9-35L58.9-35 65.4-35Q65.9-35 66.27-34.65 66.65-34.3 66.65-33.75L66.65-33.75 66.65-13.35Q66.65-8.6 64.8-5.53 62.95-2.45 59.6-0.98 56.25 0.5 51.75 0.5ZM86.35 0.5L86.35 0.5Q81.35 0.5 78.05-0.93 74.75-2.35 73.05-4.65 71.35-6.95 71.25-9.55L71.25-9.55Q71.25-9.95 71.57-10.28 71.9-10.6 72.35-10.6L72.35-10.6 78.65-10.6Q79.35-10.6 79.72-10.35 80.1-10.1 80.4-9.7L80.4-9.7Q80.8-8.95 81.52-8.25 82.25-7.55 83.45-7.13 84.65-6.7 86.35-6.7L86.35-6.7Q89.25-6.7 90.72-7.6 92.2-8.5 92.2-10.05L92.2-10.05Q92.2-11.2 91.4-11.9 90.6-12.6 88.82-13.18 87.05-13.75 84.1-14.35L84.1-14.35Q80.3-15.15 77.62-16.43 74.95-17.7 73.55-19.78 72.15-21.85 72.15-24.95L72.15-24.95Q72.15-28 73.87-30.4 75.6-32.8 78.7-34.15 81.8-35.5 86.05-35.5L86.05-35.5Q89.5-35.5 92.12-34.6 94.75-33.7 96.55-32.2 98.35-30.7 99.27-29.03 100.2-27.35 100.25-25.75L100.25-25.75Q100.25-25.35 99.97-25.03 99.7-24.7 99.2-24.7L99.2-24.7 92.6-24.7Q92.05-24.7 91.65-24.9 91.25-25.1 90.95-25.55L90.95-25.55Q90.65-26.65 89.37-27.48 88.1-28.3 86.05-28.3L86.05-28.3Q83.85-28.3 82.62-27.53 81.4-26.75 81.4-25.15L81.4-25.15Q81.4-24.15 82.07-23.4 82.75-22.65 84.32-22.1 85.9-21.55 88.65-20.95L88.65-20.95Q93.2-20.1 96-18.82 98.8-17.55 100.12-15.53 101.45-13.5 101.45-10.45L101.45-10.45Q101.45-7.05 99.5-4.6 97.55-2.15 94.17-0.83 90.8 0.5 86.35 0.5ZM121.99 0L115.39 0Q114.84 0 114.49-0.38 114.14-0.75 114.14-1.25L114.14-1.25 114.14-27.15 105.24-27.15Q104.69-27.15 104.34-27.53 103.99-27.9 103.99-28.4L103.99-28.4 103.99-33.75Q103.99-34.3 104.34-34.65 104.69-35 105.24-35L105.24-35 132.14-35Q132.69-35 133.04-34.65 133.39-34.3 133.39-33.75L133.39-33.75 133.39-28.4Q133.39-27.9 133.04-27.53 132.69-27.15 132.14-27.15L132.14-27.15 123.24-27.15 123.24-1.25Q123.24-0.75 122.89-0.38 122.54 0 121.99 0L121.99 0ZM165.54 0L149.84 0Q149.29 0 148.94-0.38 148.59-0.75 148.59-1.25L148.59-1.25 148.59-33.75Q148.59-34.3 148.94-34.65 149.29-35 149.84-35L149.84-35 165.09-35Q169.39-35 172.14-33.8 174.89-32.6 176.21-30.38 177.54-28.15 177.54-25.1L177.54-25.1Q177.54-23.3 176.86-21.93 176.19-20.55 175.21-19.65 174.24-18.75 173.39-18.35L173.39-18.35Q175.29-17.45 176.76-15.4 178.24-13.35 178.24-10.6L178.24-10.6Q178.24-7.3 176.76-4.93 175.29-2.55 172.46-1.28 169.64 0 165.54 0L165.54 0ZM157.59-14.75L157.59-6.5 164.54-6.5Q166.69-6.5 167.79-7.75 168.89-9 168.89-10.6L168.89-10.6Q168.89-12.35 167.76-13.55 166.64-14.75 164.54-14.75L164.54-14.75 157.59-14.75ZM157.59-28.5L157.59-21.1 164.09-21.1Q166.14-21.1 167.16-22.18 168.19-23.25 168.19-24.85L168.19-24.85Q168.19-26.45 167.16-27.48 166.14-28.5 164.09-28.5L164.09-28.5 157.59-28.5ZM198.49 0.5L198.49 0.5Q193.94 0.5 190.56-0.98 187.19-2.45 185.34-5.53 183.49-8.6 183.49-13.35L183.49-13.35 183.49-33.75Q183.49-34.3 183.84-34.65 184.19-35 184.74-35L184.74-35 191.19-35Q191.74-35 192.11-34.65 192.49-34.3 192.49-33.75L192.49-33.75 192.49-13.4Q192.49-10.15 194.04-8.53 195.59-6.9 198.44-6.9L198.44-6.9Q201.24-6.9 202.81-8.53 204.39-10.15 204.39-13.4L204.39-13.4 204.39-33.75Q204.39-34.3 204.76-34.65 205.14-35 205.64-35L205.64-35 212.14-35Q212.64-35 213.01-34.65 213.39-34.3 213.39-33.75L213.39-33.75 213.39-13.35Q213.39-8.6 211.54-5.53 209.69-2.45 206.34-0.98 202.99 0.5 198.49 0.5ZM236.78 0L230.28 0Q229.78 0 229.41-0.38 229.03-0.75 229.03-1.25L229.03-1.25 229.03-12 217.43-33.4Q217.38-33.55 217.33-33.68 217.28-33.8 217.28-33.95L217.28-33.95Q217.28-34.35 217.61-34.68 217.93-35 218.38-35L218.38-35 224.63-35Q225.38-35 225.81-34.63 226.23-34.25 226.38-33.95L226.38-33.95 233.53-21.05 240.73-33.95Q240.88-34.25 241.31-34.63 241.73-35 242.48-35L242.48-35 248.73-35Q249.18-35 249.48-34.68 249.78-34.35 249.78-33.95L249.78-33.95Q249.78-33.8 249.76-33.68 249.73-33.55 249.68-33.4L249.68-33.4 238.08-12 238.08-1.25Q238.08-0.75 237.71-0.38 237.33 0 236.78 0L236.78 0ZM277.78 0.5L277.78 0.5Q272.78 0.5 269.48-0.93 266.18-2.35 264.48-4.65 262.78-6.95 262.68-9.55L262.68-9.55Q262.68-9.95 263-10.28 263.33-10.6 263.78-10.6L263.78-10.6 270.08-10.6Q270.78-10.6 271.15-10.35 271.53-10.1 271.83-9.7L271.83-9.7Q272.23-8.95 272.95-8.25 273.68-7.55 274.88-7.13 276.08-6.7 277.78-6.7L277.78-6.7Q280.68-6.7 282.15-7.6 283.63-8.5 283.63-10.05L283.63-10.05Q283.63-11.2 282.83-11.9 282.03-12.6 280.25-13.18 278.48-13.75 275.53-14.35L275.53-14.35Q271.73-15.15 269.05-16.43 266.38-17.7 264.98-19.78 263.58-21.85 263.58-24.95L263.58-24.95Q263.58-28 265.3-30.4 267.03-32.8 270.13-34.15 273.23-35.5 277.48-35.5L277.48-35.5Q280.93-35.5 283.55-34.6 286.18-33.7 287.98-32.2 289.78-30.7 290.7-29.03 291.63-27.35 291.68-25.75L291.68-25.75Q291.68-25.35 291.4-25.03 291.13-24.7 290.63-24.7L290.63-24.7 284.03-24.7Q283.48-24.7 283.08-24.9 282.68-25.1 282.38-25.55L282.38-25.55Q282.08-26.65 280.8-27.48 279.53-28.3 277.48-28.3L277.48-28.3Q275.28-28.3 274.05-27.53 272.83-26.75 272.83-25.15L272.83-25.15Q272.83-24.15 273.5-23.4 274.18-22.65 275.75-22.1 277.33-21.55 280.08-20.95L280.08-20.95Q284.63-20.1 287.43-18.82 290.23-17.55 291.55-15.53 292.88-13.5 292.88-10.45L292.88-10.45Q292.88-7.05 290.93-4.6 288.98-2.15 285.6-0.83 282.23 0.5 277.78 0.5ZM312.18 0.5L312.18 0.5Q307.57 0.5 304.18-1 300.77-2.5 298.88-5.53 296.98-8.55 296.77-13.1L296.77-13.1Q296.73-15.25 296.73-17.43 296.73-19.6 296.77-21.75L296.77-21.75Q296.98-26.25 298.9-29.33 300.82-32.4 304.25-33.95 307.68-35.5 312.18-35.5L312.18-35.5Q316.73-35.5 320.13-33.95 323.52-32.4 325.48-29.33 327.43-26.25 327.57-21.75L327.57-21.75Q327.68-19.6 327.68-17.43 327.68-15.25 327.57-13.1L327.57-13.1Q327.43-8.55 325.5-5.53 323.57-2.5 320.18-1 316.77 0.5 312.18 0.5ZM312.18-6.7L312.18-6.7Q314.82-6.7 316.5-8.3 318.18-9.9 318.27-13.4L318.27-13.4Q318.38-15.6 318.38-17.55 318.38-19.5 318.27-21.6L318.27-21.6Q318.18-23.95 317.4-25.43 316.63-26.9 315.27-27.6 313.93-28.3 312.18-28.3L312.18-28.3Q310.48-28.3 309.13-27.6 307.77-26.9 306.98-25.43 306.18-23.95 306.07-21.6L306.07-21.6Q306.02-19.5 306.02-17.55 306.02-15.6 306.07-13.4L306.07-13.4Q306.23-9.9 307.9-8.3 309.57-6.7 312.18-6.7ZM340.72 0L334.72 0Q334.22 0 333.85-0.38 333.47-0.75 333.47-1.25L333.47-1.25 333.47-33.75Q333.47-34.3 333.85-34.65 334.22-35 334.72-35L334.72-35 340.12-35Q340.97-35 341.37-34.58 341.77-34.15 341.87-33.9L341.87-33.9 350.67-18.15 359.47-33.9Q359.62-34.15 360-34.58 360.37-35 361.22-35L361.22-35 366.57-35Q367.12-35 367.5-34.65 367.87-34.3 367.87-33.75L367.87-33.75 367.87-1.25Q367.87-0.75 367.5-0.38 367.12 0 366.57 0L366.57 0 360.62 0Q360.07 0 359.7-0.38 359.32-0.75 359.32-1.25L359.32-1.25 359.32-20 353.72-9.55Q353.47-9.1 353.07-8.75 352.67-8.4 351.97-8.4L351.97-8.4 349.37-8.4Q348.67-8.4 348.27-8.75 347.87-9.1 347.62-9.55L347.62-9.55 341.97-20 341.97-1.25Q341.97-0.75 341.62-0.38 341.27 0 340.72 0L340.72 0ZM399.87 0L376.12 0Q375.57 0 375.22-0.38 374.87-0.75 374.87-1.25L374.87-1.25 374.87-33.75Q374.87-34.3 375.22-34.65 375.57-35 376.12-35L376.12-35 399.47-35Q400.02-35 400.37-34.65 400.72-34.3 400.72-33.75L400.72-33.75 400.72-29.05Q400.72-28.5 400.37-28.15 400.02-27.8 399.47-27.8L399.47-27.8 383.52-27.8 383.52-21.05 398.37-21.05Q398.92-21.05 399.27-20.68 399.62-20.3 399.62-19.75L399.62-19.75 399.62-15.4Q399.62-14.9 399.27-14.53 398.92-14.15 398.37-14.15L398.37-14.15 383.52-14.15 383.52-7.2 399.87-7.2Q400.42-7.2 400.77-6.85 401.12-6.5 401.12-5.95L401.12-5.95 401.12-1.25Q401.12-0.75 400.77-0.38 400.42 0 399.87 0L399.87 0ZM422.37 0L415.77 0Q415.22 0 414.87-0.38 414.52-0.75 414.52-1.25L414.52-1.25 414.52-27.15 405.62-27.15Q405.07-27.15 404.72-27.53 404.37-27.9 404.37-28.4L404.37-28.4 404.37-33.75Q404.37-34.3 404.72-34.65 405.07-35 405.62-35L405.62-35 432.52-35Q433.07-35 433.42-34.65 433.77-34.3 433.77-33.75L433.77-33.75 433.77-28.4Q433.77-27.9 433.42-27.53 433.07-27.15 432.52-27.15L432.52-27.15 423.62-27.15 423.62-1.25Q423.62-0.75 423.27-0.38 422.92 0 422.37 0L422.37 0ZM446.02 0L439.57 0Q439.02 0 438.67-0.35 438.32-0.7 438.32-1.25L438.32-1.25 438.32-33.75Q438.32-34.3 438.67-34.65 439.02-35 439.57-35L439.57-35 446.02-35Q446.57-35 446.94-34.65 447.32-34.3 447.32-33.75L447.32-33.75 447.32-21.7 459.62-21.7 459.62-33.75Q459.62-34.3 459.97-34.65 460.32-35 460.87-35L460.87-35 467.32-35Q467.87-35 468.22-34.65 468.57-34.3 468.57-33.75L468.57-33.75 468.57-1.25Q468.57-0.75 468.22-0.38 467.87 0 467.32 0L467.32 0 460.87 0Q460.32 0 459.97-0.38 459.62-0.75 459.62-1.25L459.62-1.25 459.62-13.7 447.32-13.7 447.32-1.25Q447.32-0.75 446.94-0.38 446.57 0 446.02 0L446.02 0ZM483.51 0L476.81 0Q476.26 0 475.91-0.38 475.56-0.75 475.56-1.25L475.56-1.25 475.56-33.75Q475.56-34.3 475.91-34.65 476.26-35 476.81-35L476.81-35 483.51-35Q484.06-35 484.44-34.65 484.81-34.3 484.81-33.75L484.81-33.75 484.81-1.25Q484.81-0.75 484.44-0.38 484.06 0 483.51 0L483.51 0ZM499.01 0L493.01 0Q492.46 0 492.11-0.38 491.76-0.75 491.76-1.25L491.76-1.25 491.76-33.75Q491.76-34.3 492.11-34.65 492.46-35 493.01-35L493.01-35 498.31-35Q499.16-35 499.54-34.63 499.91-34.25 500.01-34.05L500.01-34.05 512.21-14.85 512.21-33.75Q512.21-34.3 512.56-34.65 512.91-35 513.46-35L513.46-35 519.46-35Q520.01-35 520.36-34.65 520.71-34.3 520.71-33.75L520.71-33.75 520.71-1.3Q520.71-0.75 520.36-0.38 520.01 0 519.46 0L519.46 0 514.11 0Q513.31 0 512.94-0.4 512.56-0.8 512.46-0.95L512.46-0.95 500.26-19.45 500.26-1.25Q500.26-0.75 499.91-0.38 499.56 0 499.01 0L499.01 0ZM542.16 0.5L542.16 0.5Q537.41 0.5 533.98-1.07 530.56-2.65 528.68-5.68 526.81-8.7 526.61-13.05L526.61-13.05Q526.56-15.2 526.56-17.63 526.56-20.05 526.61-22.25L526.61-22.25Q526.81-26.5 528.71-29.45 530.61-32.4 534.06-33.95 537.51-35.5 542.16-35.5L542.16-35.5Q545.91-35.5 548.81-34.58 551.71-33.65 553.68-32.1 555.66-30.55 556.71-28.7 557.76-26.85 557.81-25.05L557.81-25.05Q557.81-24.6 557.48-24.3 557.16-24 556.71-24L556.71-24 549.41-24Q548.86-24 548.58-24.18 548.31-24.35 548.11-24.7L548.11-24.7Q547.76-25.45 547.08-26.28 546.41-27.1 545.23-27.7 544.06-28.3 542.16-28.3L542.16-28.3Q539.36-28.3 537.71-26.8 536.06-25.3 535.91-22L535.91-22Q535.76-17.7 535.91-13.3L535.91-13.3Q536.06-9.8 537.76-8.25 539.46-6.7 542.31-6.7L542.31-6.7Q544.16-6.7 545.63-7.35 547.11-8 547.96-9.38 548.81-10.75 548.81-12.9L548.81-12.9 548.81-13.85 544.11-13.85Q543.56-13.85 543.21-14.23 542.86-14.6 542.86-15.15L542.86-15.15 542.86-18.85Q542.86-19.4 543.21-19.78 543.56-20.15 544.11-20.15L544.11-20.15 556.71-20.15Q557.26-20.15 557.61-19.78 557.96-19.4 557.96-18.85L557.96-18.85 557.96-13.15Q557.96-8.85 556.01-5.8 554.06-2.75 550.48-1.13 546.91 0.5 542.16 0.5Z" opacity="1" transform="matrix(1,0,0,1,0,0)" fill="#ffffff" class="slogan-text-1" data-fill-palette-color="secondary" id="text-1"></path></svg></g></svg></g></svg></g></svg></g><g transform="matrix(1,0,0,1,144.0155601421157,0)"><svg viewBox="0 0 107.48887971576856 86.79915401464548" height="86.79915401464548" width="107.48887971576856"><g><svg xmlns="http://www.w3.org/2000/svg" xmlns:xlink="http://www.w3.org/1999/xlink" version="1.1" x="8" y="0" viewBox="6.826931238990968 10.113241335473651 84.67966331152793 80.33897846952003" enable-background="new 0 0 100 100" xml:space="preserve" height="86.79915401464548" width="91.48887971576856" class="icon-icon-0" data-fill-palette-color="accent" id="icon-0"><g fill="#ff45d0" data-fill-palette-color="accent"><path d="M75.983 78.223c1.143-0.194 2.019-1.179 2.027-2.378 0.01-1.345-1.072-2.444-2.418-2.453l-41.607-0.305-1.07-4.494 45.53 0.334c1.103 0.008 2.073-0.726 2.366-1.789L91.419 28.65c0.201-0.73 0.052-1.512-0.405-2.116-0.457-0.604-1.168-0.961-1.925-0.967l0 0-18.98-0.103-1.281-0.009c-0.877 0.223-1.607 0.902-1.832 1.843-0.322 1.347 0.504 2.698 1.847 3.028l1.136 0.008 15.901 0.081-9.267 33.626-44.898-0.329-3.753-14.438-5.021-19.32 16.903 0.089 0.789 0.006c0.966-0.162 1.789-0.884 2.032-1.897 0.309-1.29-0.442-2.575-1.685-2.972l-1.495-0.011-17.807-0.096-2.099-8.165c-0.275-1.07-1.236-1.821-2.341-1.829L9.28 15.021c-1.345-0.01-2.444 1.072-2.453 2.418-0.01 1.345 1.072 2.444 2.418 2.453l6.082 0.045 2.1 8.17 10.04 38.629 2.222 9.336c0.226 0.949 0.99 1.656 1.924 1.829-0.665 1.181-1.052 2.54-1.062 3.989-0.033 4.566 3.654 8.308 8.221 8.342 4.566 0.033 8.308-3.654 8.342-8.22 0.011-1.433-0.346-2.784-0.98-3.965l15.333 0.112c-0.652 1.172-1.028 2.518-1.038 3.951-0.033 4.566 3.654 8.308 8.221 8.342 4.566 0.033 8.308-3.654 8.342-8.22C76.999 80.781 76.632 79.415 75.983 78.223zM38.806 85.362c-1.88-0.014-3.399-1.555-3.385-3.435 0.014-1.88 1.555-3.399 3.435-3.385 1.88 0.014 3.399 1.555 3.385 3.435C42.227 83.857 40.686 85.376 38.806 85.362zM68.683 85.581c-1.88-0.014-3.399-1.555-3.385-3.435 0.014-1.88 1.555-3.399 3.435-3.385s3.399 1.555 3.385 3.435C72.104 84.076 70.563 85.595 68.683 85.581z" fill="#ffffff" data-fill-palette-color="accent"></path><path d="M63.224 30.768c-1.76-1.947-4.204-2.778-6.522-3.398l0.245-8.918c0.173 0.067 0.342 0.142 0.504 0.228 1.804 0.96 3.018 2.545 3.171 4.134 0.085 0.887 0.964 1.545 1.971 1.48 1.003-0.069 1.748-0.843 1.663-1.73-0.25-2.606-2.142-5.15-4.938-6.639-0.705-0.376-1.477-0.639-2.279-0.815l0.092-3.337c0.024-0.889-0.772-1.632-1.779-1.659s-1.843 0.67-1.867 1.559l-0.091 3.307c-0.765 0.108-1.527 0.292-2.267 0.567-3.004 1.116-5.209 3.553-5.618 6.209-0.349 2.268 0.671 4.435 2.797 5.946 1.428 1.015 3.048 1.589 4.683 2.046l-0.275 10.007c-0.5-0.183-0.975-0.418-1.409-0.707-1.915-1.274-3.216-3.275-3.314-5.099-0.047-0.888-0.908-1.581-1.907-1.543-1.006 0.035-1.782 0.785-1.735 1.674 0.149 2.789 1.978 5.676 4.775 7.536 1.045 0.695 2.24 1.196 3.498 1.493l-0.082 2.977c-0.024 0.889 0.772 1.632 1.779 1.659s1.843-0.67 1.867-1.559l0.077-2.798c0.739-0.057 1.472-0.176 2.182-0.376 2.935-0.829 5.31-2.977 6.199-5.606C65.436 35.062 64.919 32.643 63.224 30.768zM50.58 25.2c-1.131-0.804-1.635-1.837-1.458-2.989 0.236-1.533 1.617-3.018 3.438-3.694 0.245-0.091 0.494-0.163 0.743-0.225l-0.222 8.087C52.149 26.073 51.295 25.708 50.58 25.2zM61.149 36.465c-0.544 1.609-2.05 2.975-3.836 3.479-0.314 0.089-0.636 0.148-0.961 0.193l0.259-9.42c1.531 0.459 2.842 1.021 3.77 2.049C61.658 34.181 61.41 35.691 61.149 36.465z" fill="#ffffff" data-fill-palette-color="accent"></path></g></svg></g></svg></g><g><rect width="144.0155601421157" height="3.4293373360966215" y="82.36981667854886" x="251.50443985788428" fill="#ffffff" data-fill-palette-color="accent"></rect><rect width="144.0155601421157" height="3.4293373360966215" y="82.36981667854886" x="0" fill="#ffffff" data-fill-palette-color="accent"></rect><rect width="144.0155601421157" height="3.4293373360966215" y="75.51114200635561" x="251.50443985788428" fill="#ffffff" data-fill-palette-color="accent"></rect><rect width="144.0155601421157" height="3.4293373360966215" y="75.51114200635561" x="0" fill="#ffffff" data-fill-palette-color="accent"></rect></g></svg></g><defs></defs></svg><rect width="395.52" height="158.5833900639255" fill="none" stroke="none" visibility="hidden"></rect></g></svg></g></svg>